<mxfile host="app.diagrams.net" agent="Mozilla/5.0 (Windows NT 10.0; Win64; x64) AppleWebKit/537.36 (KHTML, like Gecko) Chrome/141.0.0.0 Safari/537.36 Edg/141.0.0.0" version="28.2.7">
  <diagram name="1 oldal" id="WVCeUwQblUUv5M8cxBRz">
    <mxGraphModel dx="2245" dy="786" grid="1" gridSize="10" guides="1" tooltips="1" connect="1" arrows="1" fold="1" page="1" pageScale="1" pageWidth="827" pageHeight="1169" math="0" shadow="0">
      <root>
        <mxCell id="0" />
        <mxCell id="1" parent="0" />
        <mxCell id="YxLPOCUfzqNuLfs7TiQS-1" value="GJWXEU_Vendéglátás" style="ellipse;whiteSpace=wrap;html=1;" vertex="1" parent="1">
          <mxGeometry x="334" y="20" width="160" height="80" as="geometry" />
        </mxCell>
        <mxCell id="YxLPOCUfzqNuLfs7TiQS-2" value="Étterem" style="ellipse;whiteSpace=wrap;html=1;" vertex="1" parent="1">
          <mxGeometry x="-496" y="170" width="90" height="50" as="geometry" />
        </mxCell>
        <mxCell id="YxLPOCUfzqNuLfs7TiQS-3" value="Főszakács" style="ellipse;whiteSpace=wrap;html=1;" vertex="1" parent="1">
          <mxGeometry x="-196" y="170" width="90" height="50" as="geometry" />
        </mxCell>
        <mxCell id="YxLPOCUfzqNuLfs7TiQS-4" value="Szakács" style="ellipse;whiteSpace=wrap;html=1;" vertex="1" parent="1">
          <mxGeometry x="177" y="170" width="90" height="50" as="geometry" />
        </mxCell>
        <mxCell id="YxLPOCUfzqNuLfs7TiQS-5" value="Gyakornok" style="ellipse;whiteSpace=wrap;html=1;" vertex="1" parent="1">
          <mxGeometry x="535" y="170" width="90" height="50" as="geometry" />
        </mxCell>
        <mxCell id="YxLPOCUfzqNuLfs7TiQS-6" value="Vendég" style="ellipse;whiteSpace=wrap;html=1;" vertex="1" parent="1">
          <mxGeometry x="944" y="170" width="90" height="50" as="geometry" />
        </mxCell>
        <mxCell id="YxLPOCUfzqNuLfs7TiQS-7" value="Rendelés" style="ellipse;whiteSpace=wrap;html=1;" vertex="1" parent="1">
          <mxGeometry x="1304" y="170" width="90" height="50" as="geometry" />
        </mxCell>
        <mxCell id="YxLPOCUfzqNuLfs7TiQS-8" value="" style="ellipse;whiteSpace=wrap;html=1;fillColor=none;" vertex="1" parent="1">
          <mxGeometry x="-501" y="165" width="100" height="60" as="geometry" />
        </mxCell>
        <mxCell id="YxLPOCUfzqNuLfs7TiQS-9" value="" style="ellipse;whiteSpace=wrap;html=1;fillColor=none;" vertex="1" parent="1">
          <mxGeometry x="-201" y="165" width="100" height="60" as="geometry" />
        </mxCell>
        <mxCell id="YxLPOCUfzqNuLfs7TiQS-10" value="" style="ellipse;whiteSpace=wrap;html=1;fillColor=none;" vertex="1" parent="1">
          <mxGeometry x="172" y="165" width="100" height="60" as="geometry" />
        </mxCell>
        <mxCell id="YxLPOCUfzqNuLfs7TiQS-11" value="" style="ellipse;whiteSpace=wrap;html=1;fillColor=none;" vertex="1" parent="1">
          <mxGeometry x="530" y="165" width="100" height="60" as="geometry" />
        </mxCell>
        <mxCell id="YxLPOCUfzqNuLfs7TiQS-12" value="" style="ellipse;whiteSpace=wrap;html=1;fillColor=none;" vertex="1" parent="1">
          <mxGeometry x="939" y="165" width="100" height="60" as="geometry" />
        </mxCell>
        <mxCell id="YxLPOCUfzqNuLfs7TiQS-13" value="" style="ellipse;whiteSpace=wrap;html=1;fillColor=none;" vertex="1" parent="1">
          <mxGeometry x="1299" y="165" width="100" height="60" as="geometry" />
        </mxCell>
        <mxCell id="YxLPOCUfzqNuLfs7TiQS-14" value="Név" style="ellipse;whiteSpace=wrap;html=1;" vertex="1" parent="1">
          <mxGeometry x="-566" y="280" width="60" height="40" as="geometry" />
        </mxCell>
        <mxCell id="YxLPOCUfzqNuLfs7TiQS-15" value="Cím" style="ellipse;whiteSpace=wrap;html=1;" vertex="1" parent="1">
          <mxGeometry x="-481" y="280" width="60" height="40" as="geometry" />
        </mxCell>
        <mxCell id="YxLPOCUfzqNuLfs7TiQS-16" value="Csillag" style="ellipse;whiteSpace=wrap;html=1;" vertex="1" parent="1">
          <mxGeometry x="-396" y="280" width="60" height="40" as="geometry" />
        </mxCell>
        <mxCell id="YxLPOCUfzqNuLfs7TiQS-17" value="" style="endArrow=none;html=1;rounded=0;exitX=0.5;exitY=0;exitDx=0;exitDy=0;" edge="1" parent="1" source="YxLPOCUfzqNuLfs7TiQS-14">
          <mxGeometry width="50" height="50" relative="1" as="geometry">
            <mxPoint x="-501" y="275" as="sourcePoint" />
            <mxPoint x="-451" y="225" as="targetPoint" />
          </mxGeometry>
        </mxCell>
        <mxCell id="YxLPOCUfzqNuLfs7TiQS-18" value="" style="endArrow=none;html=1;rounded=0;exitX=0.5;exitY=0;exitDx=0;exitDy=0;entryX=0.5;entryY=0;entryDx=0;entryDy=0;" edge="1" parent="1">
          <mxGeometry width="50" height="50" relative="1" as="geometry">
            <mxPoint x="-451" y="225" as="sourcePoint" />
            <mxPoint x="-371" y="280" as="targetPoint" />
          </mxGeometry>
        </mxCell>
        <mxCell id="YxLPOCUfzqNuLfs7TiQS-19" value="" style="endArrow=none;html=1;rounded=0;exitX=0.5;exitY=1;exitDx=0;exitDy=0;entryX=0.5;entryY=0;entryDx=0;entryDy=0;" edge="1" parent="1" source="YxLPOCUfzqNuLfs7TiQS-8" target="YxLPOCUfzqNuLfs7TiQS-15">
          <mxGeometry width="50" height="50" relative="1" as="geometry">
            <mxPoint x="-361" y="325" as="sourcePoint" />
            <mxPoint x="-281" y="270" as="targetPoint" />
          </mxGeometry>
        </mxCell>
        <mxCell id="YxLPOCUfzqNuLfs7TiQS-20" value="&lt;u&gt;Ekod&lt;/u&gt;" style="rhombus;whiteSpace=wrap;html=1;" vertex="1" parent="1">
          <mxGeometry x="-651" y="210" width="60" height="60" as="geometry" />
        </mxCell>
        <mxCell id="YxLPOCUfzqNuLfs7TiQS-21" value="" style="endArrow=none;html=1;rounded=0;exitX=1;exitY=0.5;exitDx=0;exitDy=0;entryX=0;entryY=0.5;entryDx=0;entryDy=0;" edge="1" parent="1" source="YxLPOCUfzqNuLfs7TiQS-20" target="YxLPOCUfzqNuLfs7TiQS-8">
          <mxGeometry width="50" height="50" relative="1" as="geometry">
            <mxPoint x="-501" y="305" as="sourcePoint" />
            <mxPoint x="-421" y="250" as="targetPoint" />
          </mxGeometry>
        </mxCell>
        <mxCell id="YxLPOCUfzqNuLfs7TiQS-22" value="Utca" style="ellipse;whiteSpace=wrap;html=1;" vertex="1" parent="1">
          <mxGeometry x="-481" y="430" width="60" height="40" as="geometry" />
        </mxCell>
        <mxCell id="YxLPOCUfzqNuLfs7TiQS-23" value="Házszám" style="ellipse;whiteSpace=wrap;html=1;" vertex="1" parent="1">
          <mxGeometry x="-408" y="430" width="60" height="40" as="geometry" />
        </mxCell>
        <mxCell id="YxLPOCUfzqNuLfs7TiQS-24" value="Város" style="ellipse;whiteSpace=wrap;html=1;" vertex="1" parent="1">
          <mxGeometry x="-554" y="430" width="60" height="40" as="geometry" />
        </mxCell>
        <mxCell id="YxLPOCUfzqNuLfs7TiQS-25" value="" style="endArrow=none;html=1;rounded=0;exitX=0.5;exitY=0;exitDx=0;exitDy=0;" edge="1" parent="1" source="YxLPOCUfzqNuLfs7TiQS-24">
          <mxGeometry width="50" height="50" relative="1" as="geometry">
            <mxPoint x="-501" y="370" as="sourcePoint" />
            <mxPoint x="-451" y="320" as="targetPoint" />
          </mxGeometry>
        </mxCell>
        <mxCell id="YxLPOCUfzqNuLfs7TiQS-26" value="" style="endArrow=none;html=1;rounded=0;exitX=0.5;exitY=0;exitDx=0;exitDy=0;" edge="1" parent="1" source="YxLPOCUfzqNuLfs7TiQS-22">
          <mxGeometry width="50" height="50" relative="1" as="geometry">
            <mxPoint x="-501" y="510" as="sourcePoint" />
            <mxPoint x="-451" y="320" as="targetPoint" />
          </mxGeometry>
        </mxCell>
        <mxCell id="YxLPOCUfzqNuLfs7TiQS-27" value="" style="endArrow=none;html=1;rounded=0;exitX=0.5;exitY=0;exitDx=0;exitDy=0;entryX=0.5;entryY=1;entryDx=0;entryDy=0;" edge="1" parent="1" source="YxLPOCUfzqNuLfs7TiQS-23" target="YxLPOCUfzqNuLfs7TiQS-15">
          <mxGeometry width="50" height="50" relative="1" as="geometry">
            <mxPoint x="-381" y="530" as="sourcePoint" />
            <mxPoint x="-311" y="420" as="targetPoint" />
          </mxGeometry>
        </mxCell>
        <mxCell id="YxLPOCUfzqNuLfs7TiQS-28" value="" style="rounded=0;whiteSpace=wrap;html=1;" vertex="1" parent="1">
          <mxGeometry x="-556" y="340" width="40" height="50" as="geometry" />
        </mxCell>
        <mxCell id="YxLPOCUfzqNuLfs7TiQS-29" value="" style="rounded=0;whiteSpace=wrap;html=1;" vertex="1" parent="1">
          <mxGeometry x="-386" y="340" width="40" height="50" as="geometry" />
        </mxCell>
        <mxCell id="YxLPOCUfzqNuLfs7TiQS-30" value="" style="endArrow=none;html=1;rounded=0;entryX=0.5;entryY=1;entryDx=0;entryDy=0;exitX=0.5;exitY=0;exitDx=0;exitDy=0;" edge="1" parent="1" source="YxLPOCUfzqNuLfs7TiQS-29">
          <mxGeometry width="50" height="50" relative="1" as="geometry">
            <mxPoint x="-506" y="300" as="sourcePoint" />
            <mxPoint x="-366" y="320" as="targetPoint" />
          </mxGeometry>
        </mxCell>
        <mxCell id="YxLPOCUfzqNuLfs7TiQS-31" value="" style="endArrow=none;html=1;rounded=0;entryX=0.5;entryY=1;entryDx=0;entryDy=0;exitX=0.5;exitY=0;exitDx=0;exitDy=0;" edge="1" parent="1" source="YxLPOCUfzqNuLfs7TiQS-28" target="YxLPOCUfzqNuLfs7TiQS-14">
          <mxGeometry width="50" height="50" relative="1" as="geometry">
            <mxPoint x="-516" y="300" as="sourcePoint" />
            <mxPoint x="-466" y="250" as="targetPoint" />
          </mxGeometry>
        </mxCell>
        <mxCell id="YxLPOCUfzqNuLfs7TiQS-32" value="" style="endArrow=none;html=1;rounded=0;exitX=0.5;exitY=0;exitDx=0;exitDy=0;entryX=0.5;entryY=1;entryDx=0;entryDy=0;" edge="1" parent="1" source="YxLPOCUfzqNuLfs7TiQS-8" target="YxLPOCUfzqNuLfs7TiQS-1">
          <mxGeometry width="50" height="50" relative="1" as="geometry">
            <mxPoint x="173" y="110" as="sourcePoint" />
            <mxPoint x="305" y="100" as="targetPoint" />
          </mxGeometry>
        </mxCell>
        <mxCell id="YxLPOCUfzqNuLfs7TiQS-33" value="" style="endArrow=none;html=1;rounded=0;exitX=0.5;exitY=0;exitDx=0;exitDy=0;entryX=0.5;entryY=1;entryDx=0;entryDy=0;" edge="1" parent="1" source="YxLPOCUfzqNuLfs7TiQS-9" target="YxLPOCUfzqNuLfs7TiQS-1">
          <mxGeometry width="50" height="50" relative="1" as="geometry">
            <mxPoint x="127" y="150" as="sourcePoint" />
            <mxPoint x="305" y="100" as="targetPoint" />
          </mxGeometry>
        </mxCell>
        <mxCell id="YxLPOCUfzqNuLfs7TiQS-34" value="" style="endArrow=none;html=1;rounded=0;exitX=0.5;exitY=0;exitDx=0;exitDy=0;entryX=0.5;entryY=1;entryDx=0;entryDy=0;" edge="1" parent="1" source="YxLPOCUfzqNuLfs7TiQS-10" target="YxLPOCUfzqNuLfs7TiQS-1">
          <mxGeometry width="50" height="50" relative="1" as="geometry">
            <mxPoint x="123" y="150" as="sourcePoint" />
            <mxPoint x="305" y="100" as="targetPoint" />
          </mxGeometry>
        </mxCell>
        <mxCell id="YxLPOCUfzqNuLfs7TiQS-35" value="" style="endArrow=none;html=1;rounded=0;exitX=0.5;exitY=0;exitDx=0;exitDy=0;entryX=0.5;entryY=1;entryDx=0;entryDy=0;" edge="1" parent="1" source="YxLPOCUfzqNuLfs7TiQS-11" target="YxLPOCUfzqNuLfs7TiQS-1">
          <mxGeometry width="50" height="50" relative="1" as="geometry">
            <mxPoint x="251" y="150" as="sourcePoint" />
            <mxPoint x="301" y="100" as="targetPoint" />
          </mxGeometry>
        </mxCell>
        <mxCell id="YxLPOCUfzqNuLfs7TiQS-36" value="" style="endArrow=none;html=1;rounded=0;exitX=0.5;exitY=0;exitDx=0;exitDy=0;" edge="1" parent="1" source="YxLPOCUfzqNuLfs7TiQS-12">
          <mxGeometry width="50" height="50" relative="1" as="geometry">
            <mxPoint x="360" y="150" as="sourcePoint" />
            <mxPoint x="410" y="100" as="targetPoint" />
          </mxGeometry>
        </mxCell>
        <mxCell id="YxLPOCUfzqNuLfs7TiQS-37" value="" style="endArrow=none;html=1;rounded=0;exitX=0.5;exitY=0;exitDx=0;exitDy=0;" edge="1" parent="1" source="YxLPOCUfzqNuLfs7TiQS-13">
          <mxGeometry width="50" height="50" relative="1" as="geometry">
            <mxPoint x="360" y="150" as="sourcePoint" />
            <mxPoint x="410" y="100" as="targetPoint" />
          </mxGeometry>
        </mxCell>
        <mxCell id="YxLPOCUfzqNuLfs7TiQS-38" value="Életkor" style="ellipse;whiteSpace=wrap;html=1;" vertex="1" parent="1">
          <mxGeometry x="-181" y="280" width="60" height="40" as="geometry" />
        </mxCell>
        <mxCell id="YxLPOCUfzqNuLfs7TiQS-39" value="Név" style="ellipse;whiteSpace=wrap;html=1;" vertex="1" parent="1">
          <mxGeometry x="-261" y="280" width="60" height="40" as="geometry" />
        </mxCell>
        <mxCell id="YxLPOCUfzqNuLfs7TiQS-40" value="Végzettség" style="ellipse;whiteSpace=wrap;html=1;" vertex="1" parent="1">
          <mxGeometry x="-101" y="280" width="70" height="40" as="geometry" />
        </mxCell>
        <mxCell id="YxLPOCUfzqNuLfs7TiQS-41" value="" style="ellipse;whiteSpace=wrap;html=1;fillColor=none;" vertex="1" parent="1">
          <mxGeometry x="-106" y="275" width="80" height="50" as="geometry" />
        </mxCell>
        <mxCell id="YxLPOCUfzqNuLfs7TiQS-42" value="" style="rounded=0;whiteSpace=wrap;html=1;" vertex="1" parent="1">
          <mxGeometry x="-251" y="340" width="40" height="50" as="geometry" />
        </mxCell>
        <mxCell id="YxLPOCUfzqNuLfs7TiQS-43" value="" style="rounded=0;whiteSpace=wrap;html=1;" vertex="1" parent="1">
          <mxGeometry x="-171" y="340" width="40" height="50" as="geometry" />
        </mxCell>
        <mxCell id="YxLPOCUfzqNuLfs7TiQS-44" value="" style="rounded=0;whiteSpace=wrap;html=1;" vertex="1" parent="1">
          <mxGeometry x="-86" y="340" width="40" height="50" as="geometry" />
        </mxCell>
        <mxCell id="YxLPOCUfzqNuLfs7TiQS-45" value="" style="endArrow=none;html=1;rounded=0;exitX=0.5;exitY=0;exitDx=0;exitDy=0;" edge="1" parent="1" source="YxLPOCUfzqNuLfs7TiQS-42">
          <mxGeometry width="50" height="50" relative="1" as="geometry">
            <mxPoint x="-281" y="370" as="sourcePoint" />
            <mxPoint x="-231" y="320" as="targetPoint" />
          </mxGeometry>
        </mxCell>
        <mxCell id="YxLPOCUfzqNuLfs7TiQS-46" value="" style="endArrow=none;html=1;rounded=0;exitX=0.5;exitY=0;exitDx=0;exitDy=0;" edge="1" parent="1" source="YxLPOCUfzqNuLfs7TiQS-43">
          <mxGeometry width="50" height="50" relative="1" as="geometry">
            <mxPoint x="-201" y="370" as="sourcePoint" />
            <mxPoint x="-151" y="320" as="targetPoint" />
          </mxGeometry>
        </mxCell>
        <mxCell id="YxLPOCUfzqNuLfs7TiQS-47" value="" style="endArrow=none;html=1;rounded=0;entryX=0.5;entryY=1;entryDx=0;entryDy=0;exitX=0.5;exitY=0;exitDx=0;exitDy=0;" edge="1" parent="1" source="YxLPOCUfzqNuLfs7TiQS-44" target="YxLPOCUfzqNuLfs7TiQS-41">
          <mxGeometry width="50" height="50" relative="1" as="geometry">
            <mxPoint x="-111" y="380" as="sourcePoint" />
            <mxPoint x="-61" y="330" as="targetPoint" />
          </mxGeometry>
        </mxCell>
        <mxCell id="YxLPOCUfzqNuLfs7TiQS-48" value="&lt;u&gt;Fkod&lt;/u&gt;" style="rhombus;whiteSpace=wrap;html=1;" vertex="1" parent="1">
          <mxGeometry x="-321" y="210" width="60" height="60" as="geometry" />
        </mxCell>
        <mxCell id="YxLPOCUfzqNuLfs7TiQS-49" value="" style="endArrow=none;html=1;rounded=0;entryX=0;entryY=0.5;entryDx=0;entryDy=0;" edge="1" parent="1" target="YxLPOCUfzqNuLfs7TiQS-9">
          <mxGeometry width="50" height="50" relative="1" as="geometry">
            <mxPoint x="-261" y="240" as="sourcePoint" />
            <mxPoint x="-211" y="190" as="targetPoint" />
          </mxGeometry>
        </mxCell>
        <mxCell id="YxLPOCUfzqNuLfs7TiQS-50" value="" style="endArrow=none;html=1;rounded=0;entryX=0.5;entryY=1;entryDx=0;entryDy=0;exitX=0.5;exitY=0;exitDx=0;exitDy=0;" edge="1" parent="1" source="YxLPOCUfzqNuLfs7TiQS-39" target="YxLPOCUfzqNuLfs7TiQS-9">
          <mxGeometry width="50" height="50" relative="1" as="geometry">
            <mxPoint x="-201" y="280" as="sourcePoint" />
            <mxPoint x="-151" y="230" as="targetPoint" />
          </mxGeometry>
        </mxCell>
        <mxCell id="YxLPOCUfzqNuLfs7TiQS-51" value="" style="endArrow=none;html=1;rounded=0;entryX=0.5;entryY=1;entryDx=0;entryDy=0;exitX=0.5;exitY=0;exitDx=0;exitDy=0;" edge="1" parent="1" target="YxLPOCUfzqNuLfs7TiQS-9">
          <mxGeometry width="50" height="50" relative="1" as="geometry">
            <mxPoint x="-151" y="280" as="sourcePoint" />
            <mxPoint x="-71" y="225" as="targetPoint" />
          </mxGeometry>
        </mxCell>
        <mxCell id="YxLPOCUfzqNuLfs7TiQS-52" value="" style="endArrow=none;html=1;rounded=0;entryX=0.5;entryY=1;entryDx=0;entryDy=0;exitX=0.5;exitY=0;exitDx=0;exitDy=0;" edge="1" parent="1" source="YxLPOCUfzqNuLfs7TiQS-41" target="YxLPOCUfzqNuLfs7TiQS-9">
          <mxGeometry width="50" height="50" relative="1" as="geometry">
            <mxPoint x="-121" y="285" as="sourcePoint" />
            <mxPoint x="-121" y="230" as="targetPoint" />
          </mxGeometry>
        </mxCell>
        <mxCell id="YxLPOCUfzqNuLfs7TiQS-53" value="E_F" style="rhombus;whiteSpace=wrap;html=1;" vertex="1" parent="1">
          <mxGeometry x="-22" y="213" width="60" height="60" as="geometry" />
        </mxCell>
        <mxCell id="YxLPOCUfzqNuLfs7TiQS-54" value="" style="endArrow=none;html=1;rounded=0;exitX=1;exitY=0.5;exitDx=0;exitDy=0;entryX=0;entryY=0.5;entryDx=0;entryDy=0;" edge="1" parent="1" source="YxLPOCUfzqNuLfs7TiQS-9" target="YxLPOCUfzqNuLfs7TiQS-53">
          <mxGeometry width="50" height="50" relative="1" as="geometry">
            <mxPoint x="-71" y="290" as="sourcePoint" />
            <mxPoint x="-21" y="240" as="targetPoint" />
          </mxGeometry>
        </mxCell>
        <mxCell id="YxLPOCUfzqNuLfs7TiQS-55" value="" style="endArrow=none;dashed=1;html=1;rounded=0;" edge="1" parent="1">
          <mxGeometry width="50" height="50" relative="1" as="geometry">
            <mxPoint x="9" y="550" as="sourcePoint" />
            <mxPoint x="8.800000000000011" y="270" as="targetPoint" />
          </mxGeometry>
        </mxCell>
        <mxCell id="YxLPOCUfzqNuLfs7TiQS-56" value="" style="endArrow=none;dashed=1;html=1;rounded=0;" edge="1" parent="1">
          <mxGeometry width="50" height="50" relative="1" as="geometry">
            <mxPoint x="-620" y="553" as="sourcePoint" />
            <mxPoint x="10" y="553" as="targetPoint" />
          </mxGeometry>
        </mxCell>
        <mxCell id="YxLPOCUfzqNuLfs7TiQS-57" value="" style="endArrow=none;dashed=1;html=1;rounded=0;" edge="1" parent="1">
          <mxGeometry width="50" height="50" relative="1" as="geometry">
            <mxPoint x="-621" y="550" as="sourcePoint" />
            <mxPoint x="-621.08" y="270" as="targetPoint" />
          </mxGeometry>
        </mxCell>
        <mxCell id="YxLPOCUfzqNuLfs7TiQS-58" value="" style="endArrow=none;dashed=1;html=1;rounded=0;" edge="1" parent="1">
          <mxGeometry width="50" height="50" relative="1" as="geometry">
            <mxPoint x="-5" y="251.99999999999997" as="sourcePoint" />
            <mxPoint x="25" y="252.23" as="targetPoint" />
          </mxGeometry>
        </mxCell>
        <mxCell id="YxLPOCUfzqNuLfs7TiQS-59" value="Név" style="ellipse;whiteSpace=wrap;html=1;" vertex="1" parent="1">
          <mxGeometry x="111" y="280" width="60" height="40" as="geometry" />
        </mxCell>
        <mxCell id="YxLPOCUfzqNuLfs7TiQS-60" value="" style="rounded=0;whiteSpace=wrap;html=1;" vertex="1" parent="1">
          <mxGeometry x="121" y="340" width="40" height="50" as="geometry" />
        </mxCell>
        <mxCell id="YxLPOCUfzqNuLfs7TiQS-61" value="" style="endArrow=none;html=1;rounded=0;exitX=0.5;exitY=0;exitDx=0;exitDy=0;" edge="1" parent="1" source="YxLPOCUfzqNuLfs7TiQS-60">
          <mxGeometry width="50" height="50" relative="1" as="geometry">
            <mxPoint x="91" y="370" as="sourcePoint" />
            <mxPoint x="141" y="320" as="targetPoint" />
          </mxGeometry>
        </mxCell>
        <mxCell id="YxLPOCUfzqNuLfs7TiQS-62" value="Részleg" style="ellipse;whiteSpace=wrap;html=1;" vertex="1" parent="1">
          <mxGeometry x="192" y="280" width="60" height="40" as="geometry" />
        </mxCell>
        <mxCell id="YxLPOCUfzqNuLfs7TiQS-63" value="" style="rounded=0;whiteSpace=wrap;html=1;" vertex="1" parent="1">
          <mxGeometry x="202" y="340" width="40" height="50" as="geometry" />
        </mxCell>
        <mxCell id="YxLPOCUfzqNuLfs7TiQS-64" value="" style="endArrow=none;html=1;rounded=0;exitX=0.5;exitY=0;exitDx=0;exitDy=0;" edge="1" parent="1" source="YxLPOCUfzqNuLfs7TiQS-63">
          <mxGeometry width="50" height="50" relative="1" as="geometry">
            <mxPoint x="172" y="370" as="sourcePoint" />
            <mxPoint x="222" y="320" as="targetPoint" />
          </mxGeometry>
        </mxCell>
        <mxCell id="YxLPOCUfzqNuLfs7TiQS-65" value="Végzettség" style="ellipse;whiteSpace=wrap;html=1;" vertex="1" parent="1">
          <mxGeometry x="273" y="280" width="70" height="40" as="geometry" />
        </mxCell>
        <mxCell id="YxLPOCUfzqNuLfs7TiQS-66" value="" style="rounded=0;whiteSpace=wrap;html=1;" vertex="1" parent="1">
          <mxGeometry x="288" y="340" width="40" height="50" as="geometry" />
        </mxCell>
        <mxCell id="YxLPOCUfzqNuLfs7TiQS-67" value="" style="endArrow=none;html=1;rounded=0;exitX=0.5;exitY=0;exitDx=0;exitDy=0;entryX=0.5;entryY=1;entryDx=0;entryDy=0;" edge="1" parent="1" source="YxLPOCUfzqNuLfs7TiQS-66" target="YxLPOCUfzqNuLfs7TiQS-65">
          <mxGeometry width="50" height="50" relative="1" as="geometry">
            <mxPoint x="253" y="370" as="sourcePoint" />
            <mxPoint x="303" y="320" as="targetPoint" />
          </mxGeometry>
        </mxCell>
        <mxCell id="YxLPOCUfzqNuLfs7TiQS-68" value="" style="endArrow=none;html=1;rounded=0;exitX=0.5;exitY=0;exitDx=0;exitDy=0;" edge="1" parent="1" source="YxLPOCUfzqNuLfs7TiQS-62">
          <mxGeometry width="50" height="50" relative="1" as="geometry">
            <mxPoint x="172" y="275" as="sourcePoint" />
            <mxPoint x="222" y="225" as="targetPoint" />
          </mxGeometry>
        </mxCell>
        <mxCell id="YxLPOCUfzqNuLfs7TiQS-69" value="" style="ellipse;whiteSpace=wrap;html=1;fillColor=none;" vertex="1" parent="1">
          <mxGeometry x="268" y="275" width="80" height="50" as="geometry" />
        </mxCell>
        <mxCell id="YxLPOCUfzqNuLfs7TiQS-70" value="&lt;u&gt;Szkod&lt;/u&gt;" style="rhombus;whiteSpace=wrap;html=1;" vertex="1" parent="1">
          <mxGeometry x="62" y="210" width="60" height="60" as="geometry" />
        </mxCell>
        <mxCell id="YxLPOCUfzqNuLfs7TiQS-71" value="" style="endArrow=none;html=1;rounded=0;exitX=1;exitY=0.5;exitDx=0;exitDy=0;entryX=0;entryY=0.5;entryDx=0;entryDy=0;" edge="1" parent="1" source="YxLPOCUfzqNuLfs7TiQS-70" target="YxLPOCUfzqNuLfs7TiQS-10">
          <mxGeometry width="50" height="50" relative="1" as="geometry">
            <mxPoint x="42" y="250" as="sourcePoint" />
            <mxPoint x="92" y="200" as="targetPoint" />
          </mxGeometry>
        </mxCell>
        <mxCell id="YxLPOCUfzqNuLfs7TiQS-72" value="" style="endArrow=none;html=1;rounded=0;exitX=0.5;exitY=0;exitDx=0;exitDy=0;entryX=0.5;entryY=1;entryDx=0;entryDy=0;" edge="1" parent="1" source="YxLPOCUfzqNuLfs7TiQS-59" target="YxLPOCUfzqNuLfs7TiQS-10">
          <mxGeometry width="50" height="50" relative="1" as="geometry">
            <mxPoint x="172" y="280" as="sourcePoint" />
            <mxPoint x="222" y="230" as="targetPoint" />
          </mxGeometry>
        </mxCell>
        <mxCell id="YxLPOCUfzqNuLfs7TiQS-73" value="" style="endArrow=none;html=1;rounded=0;entryX=0.5;entryY=1;entryDx=0;entryDy=0;exitX=0.5;exitY=0;exitDx=0;exitDy=0;" edge="1" parent="1" source="YxLPOCUfzqNuLfs7TiQS-69" target="YxLPOCUfzqNuLfs7TiQS-10">
          <mxGeometry width="50" height="50" relative="1" as="geometry">
            <mxPoint x="302" y="270" as="sourcePoint" />
            <mxPoint x="352" y="220" as="targetPoint" />
          </mxGeometry>
        </mxCell>
        <mxCell id="YxLPOCUfzqNuLfs7TiQS-74" value="E_Sz" style="rhombus;whiteSpace=wrap;html=1;" vertex="1" parent="1">
          <mxGeometry x="356" y="210" width="60" height="60" as="geometry" />
        </mxCell>
        <mxCell id="YxLPOCUfzqNuLfs7TiQS-75" value="" style="endArrow=none;dashed=1;html=1;rounded=0;" edge="1" parent="1">
          <mxGeometry width="50" height="50" relative="1" as="geometry">
            <mxPoint x="373" y="249" as="sourcePoint" />
            <mxPoint x="403" y="249.23000000000002" as="targetPoint" />
          </mxGeometry>
        </mxCell>
        <mxCell id="YxLPOCUfzqNuLfs7TiQS-76" value="" style="endArrow=none;html=1;rounded=0;entryX=0;entryY=0.5;entryDx=0;entryDy=0;exitX=1;exitY=0.5;exitDx=0;exitDy=0;" edge="1" parent="1" source="YxLPOCUfzqNuLfs7TiQS-10" target="YxLPOCUfzqNuLfs7TiQS-74">
          <mxGeometry width="50" height="50" relative="1" as="geometry">
            <mxPoint x="322" y="200" as="sourcePoint" />
            <mxPoint x="322" y="150" as="targetPoint" />
          </mxGeometry>
        </mxCell>
        <mxCell id="YxLPOCUfzqNuLfs7TiQS-77" value="" style="endArrow=none;dashed=1;html=1;rounded=0;" edge="1" parent="1">
          <mxGeometry width="50" height="50" relative="1" as="geometry">
            <mxPoint x="386" y="570" as="sourcePoint" />
            <mxPoint x="385.90999999999997" y="270" as="targetPoint" />
          </mxGeometry>
        </mxCell>
        <mxCell id="YxLPOCUfzqNuLfs7TiQS-78" value="" style="endArrow=none;dashed=1;html=1;rounded=0;" edge="1" parent="1">
          <mxGeometry width="50" height="50" relative="1" as="geometry">
            <mxPoint x="-628" y="571" as="sourcePoint" />
            <mxPoint x="386" y="571" as="targetPoint" />
          </mxGeometry>
        </mxCell>
        <mxCell id="YxLPOCUfzqNuLfs7TiQS-79" value="" style="endArrow=none;dashed=1;html=1;rounded=0;entryX=0.39;entryY=0.924;entryDx=0;entryDy=0;entryPerimeter=0;" edge="1" parent="1" target="YxLPOCUfzqNuLfs7TiQS-20">
          <mxGeometry width="50" height="50" relative="1" as="geometry">
            <mxPoint x="-628" y="570" as="sourcePoint" />
            <mxPoint x="-628" y="260" as="targetPoint" />
          </mxGeometry>
        </mxCell>
        <mxCell id="YxLPOCUfzqNuLfs7TiQS-80" value="Név" style="ellipse;whiteSpace=wrap;html=1;" vertex="1" parent="1">
          <mxGeometry x="467" y="285" width="60" height="40" as="geometry" />
        </mxCell>
        <mxCell id="YxLPOCUfzqNuLfs7TiQS-81" value="" style="rounded=0;whiteSpace=wrap;html=1;" vertex="1" parent="1">
          <mxGeometry x="477" y="345" width="40" height="50" as="geometry" />
        </mxCell>
        <mxCell id="YxLPOCUfzqNuLfs7TiQS-82" value="" style="endArrow=none;html=1;rounded=0;exitX=0.5;exitY=0;exitDx=0;exitDy=0;" edge="1" parent="1" source="YxLPOCUfzqNuLfs7TiQS-81">
          <mxGeometry width="50" height="50" relative="1" as="geometry">
            <mxPoint x="447" y="375" as="sourcePoint" />
            <mxPoint x="497" y="325" as="targetPoint" />
          </mxGeometry>
        </mxCell>
        <mxCell id="YxLPOCUfzqNuLfs7TiQS-83" value="Gyakorlat" style="ellipse;whiteSpace=wrap;html=1;" vertex="1" parent="1">
          <mxGeometry x="550" y="285" width="60" height="40" as="geometry" />
        </mxCell>
        <mxCell id="YxLPOCUfzqNuLfs7TiQS-84" value="" style="rounded=0;whiteSpace=wrap;html=1;" vertex="1" parent="1">
          <mxGeometry x="523.5" y="494" width="40" height="50" as="geometry" />
        </mxCell>
        <mxCell id="YxLPOCUfzqNuLfs7TiQS-85" value="Műszak" style="ellipse;whiteSpace=wrap;html=1;" vertex="1" parent="1">
          <mxGeometry x="635" y="285" width="65" height="40" as="geometry" />
        </mxCell>
        <mxCell id="YxLPOCUfzqNuLfs7TiQS-86" value="" style="rounded=0;whiteSpace=wrap;html=1;" vertex="1" parent="1">
          <mxGeometry x="647.5" y="345" width="40" height="50" as="geometry" />
        </mxCell>
        <mxCell id="YxLPOCUfzqNuLfs7TiQS-87" value="" style="endArrow=none;html=1;rounded=0;exitX=0.5;exitY=0;exitDx=0;exitDy=0;entryX=0.5;entryY=1;entryDx=0;entryDy=0;" edge="1" parent="1" source="YxLPOCUfzqNuLfs7TiQS-86" target="YxLPOCUfzqNuLfs7TiQS-85">
          <mxGeometry width="50" height="50" relative="1" as="geometry">
            <mxPoint x="610" y="375" as="sourcePoint" />
            <mxPoint x="660" y="325" as="targetPoint" />
          </mxGeometry>
        </mxCell>
        <mxCell id="YxLPOCUfzqNuLfs7TiQS-88" value="" style="ellipse;whiteSpace=wrap;html=1;fillColor=none;" vertex="1" parent="1">
          <mxGeometry x="628.75" y="280" width="77.5" height="50" as="geometry" />
        </mxCell>
        <mxCell id="YxLPOCUfzqNuLfs7TiQS-89" value="" style="endArrow=none;html=1;rounded=0;entryX=0.5;entryY=1;entryDx=0;entryDy=0;exitX=0.5;exitY=0;exitDx=0;exitDy=0;" edge="1" parent="1" source="YxLPOCUfzqNuLfs7TiQS-83" target="YxLPOCUfzqNuLfs7TiQS-11">
          <mxGeometry width="50" height="50" relative="1" as="geometry">
            <mxPoint x="530" y="300" as="sourcePoint" />
            <mxPoint x="580" y="250" as="targetPoint" />
          </mxGeometry>
        </mxCell>
        <mxCell id="YxLPOCUfzqNuLfs7TiQS-90" value="" style="endArrow=none;html=1;rounded=0;entryX=0.5;entryY=1;entryDx=0;entryDy=0;exitX=0.5;exitY=0;exitDx=0;exitDy=0;" edge="1" parent="1" source="YxLPOCUfzqNuLfs7TiQS-80" target="YxLPOCUfzqNuLfs7TiQS-11">
          <mxGeometry width="50" height="50" relative="1" as="geometry">
            <mxPoint x="480" y="270" as="sourcePoint" />
            <mxPoint x="530" y="220" as="targetPoint" />
          </mxGeometry>
        </mxCell>
        <mxCell id="YxLPOCUfzqNuLfs7TiQS-91" value="" style="endArrow=none;html=1;rounded=0;exitX=0.5;exitY=1;exitDx=0;exitDy=0;entryX=0.5;entryY=0;entryDx=0;entryDy=0;" edge="1" parent="1" source="YxLPOCUfzqNuLfs7TiQS-11" target="YxLPOCUfzqNuLfs7TiQS-88">
          <mxGeometry width="50" height="50" relative="1" as="geometry">
            <mxPoint x="610" y="270" as="sourcePoint" />
            <mxPoint x="660" y="220" as="targetPoint" />
          </mxGeometry>
        </mxCell>
        <mxCell id="YxLPOCUfzqNuLfs7TiQS-92" value="Kezdzete" style="ellipse;whiteSpace=wrap;html=1;" vertex="1" parent="1">
          <mxGeometry x="515" y="434" width="57" height="40" as="geometry" />
        </mxCell>
        <mxCell id="YxLPOCUfzqNuLfs7TiQS-93" value="Időtartama" style="ellipse;whiteSpace=wrap;html=1;" vertex="1" parent="1">
          <mxGeometry x="587.5" y="434" width="62.5" height="40" as="geometry" />
        </mxCell>
        <mxCell id="YxLPOCUfzqNuLfs7TiQS-94" value="" style="rounded=0;whiteSpace=wrap;html=1;" vertex="1" parent="1">
          <mxGeometry x="598.75" y="494" width="40" height="50" as="geometry" />
        </mxCell>
        <mxCell id="YxLPOCUfzqNuLfs7TiQS-95" value="" style="endArrow=none;html=1;rounded=0;exitX=0.5;exitY=0;exitDx=0;exitDy=0;entryX=0.5;entryY=1;entryDx=0;entryDy=0;" edge="1" parent="1" source="YxLPOCUfzqNuLfs7TiQS-92" target="YxLPOCUfzqNuLfs7TiQS-83">
          <mxGeometry width="50" height="50" relative="1" as="geometry">
            <mxPoint x="540" y="390" as="sourcePoint" />
            <mxPoint x="590" y="340" as="targetPoint" />
          </mxGeometry>
        </mxCell>
        <mxCell id="YxLPOCUfzqNuLfs7TiQS-96" value="" style="endArrow=none;html=1;rounded=0;entryX=0.5;entryY=1;entryDx=0;entryDy=0;exitX=0.5;exitY=0;exitDx=0;exitDy=0;" edge="1" parent="1" source="YxLPOCUfzqNuLfs7TiQS-93" target="YxLPOCUfzqNuLfs7TiQS-83">
          <mxGeometry width="50" height="50" relative="1" as="geometry">
            <mxPoint x="570" y="400" as="sourcePoint" />
            <mxPoint x="620" y="350" as="targetPoint" />
          </mxGeometry>
        </mxCell>
        <mxCell id="YxLPOCUfzqNuLfs7TiQS-97" value="" style="endArrow=none;html=1;rounded=0;entryX=0.5;entryY=1;entryDx=0;entryDy=0;exitX=0.5;exitY=0;exitDx=0;exitDy=0;" edge="1" parent="1" source="YxLPOCUfzqNuLfs7TiQS-84" target="YxLPOCUfzqNuLfs7TiQS-92">
          <mxGeometry width="50" height="50" relative="1" as="geometry">
            <mxPoint x="455" y="534" as="sourcePoint" />
            <mxPoint x="505" y="484" as="targetPoint" />
          </mxGeometry>
        </mxCell>
        <mxCell id="YxLPOCUfzqNuLfs7TiQS-98" value="" style="endArrow=none;html=1;rounded=0;entryX=0.5;entryY=1;entryDx=0;entryDy=0;exitX=0.5;exitY=0;exitDx=0;exitDy=0;" edge="1" parent="1" source="YxLPOCUfzqNuLfs7TiQS-94" target="YxLPOCUfzqNuLfs7TiQS-93">
          <mxGeometry width="50" height="50" relative="1" as="geometry">
            <mxPoint x="540" y="524" as="sourcePoint" />
            <mxPoint x="590" y="474" as="targetPoint" />
          </mxGeometry>
        </mxCell>
        <mxCell id="YxLPOCUfzqNuLfs7TiQS-99" value="&lt;u&gt;Gykod&lt;/u&gt;" style="rhombus;whiteSpace=wrap;html=1;" vertex="1" parent="1">
          <mxGeometry x="430" y="210" width="60" height="60" as="geometry" />
        </mxCell>
        <mxCell id="YxLPOCUfzqNuLfs7TiQS-100" value="" style="endArrow=none;html=1;rounded=0;entryX=0;entryY=0.5;entryDx=0;entryDy=0;exitX=1;exitY=0.5;exitDx=0;exitDy=0;" edge="1" parent="1" source="YxLPOCUfzqNuLfs7TiQS-99" target="YxLPOCUfzqNuLfs7TiQS-11">
          <mxGeometry width="50" height="50" relative="1" as="geometry">
            <mxPoint x="480" y="280" as="sourcePoint" />
            <mxPoint x="530" y="230" as="targetPoint" />
          </mxGeometry>
        </mxCell>
        <mxCell id="YxLPOCUfzqNuLfs7TiQS-101" value="E_Gy" style="rhombus;whiteSpace=wrap;html=1;" vertex="1" parent="1">
          <mxGeometry x="719" y="210" width="60" height="60" as="geometry" />
        </mxCell>
        <mxCell id="YxLPOCUfzqNuLfs7TiQS-102" value="" style="endArrow=none;dashed=1;html=1;rounded=0;" edge="1" parent="1">
          <mxGeometry width="50" height="50" relative="1" as="geometry">
            <mxPoint x="736" y="249" as="sourcePoint" />
            <mxPoint x="766" y="249.23000000000002" as="targetPoint" />
          </mxGeometry>
        </mxCell>
        <mxCell id="YxLPOCUfzqNuLfs7TiQS-103" value="" style="endArrow=none;dashed=1;html=1;rounded=0;" edge="1" parent="1">
          <mxGeometry width="50" height="50" relative="1" as="geometry">
            <mxPoint x="-634" y="583" as="sourcePoint" />
            <mxPoint x="749" y="583" as="targetPoint" />
          </mxGeometry>
        </mxCell>
        <mxCell id="YxLPOCUfzqNuLfs7TiQS-104" value="" style="endArrow=none;dashed=1;html=1;rounded=0;entryX=0.39;entryY=0.924;entryDx=0;entryDy=0;entryPerimeter=0;" edge="1" parent="1">
          <mxGeometry width="50" height="50" relative="1" as="geometry">
            <mxPoint x="-635" y="580" as="sourcePoint" />
            <mxPoint x="-635" y="259" as="targetPoint" />
          </mxGeometry>
        </mxCell>
        <mxCell id="YxLPOCUfzqNuLfs7TiQS-105" value="" style="endArrow=none;dashed=1;html=1;rounded=0;" edge="1" parent="1">
          <mxGeometry width="50" height="50" relative="1" as="geometry">
            <mxPoint x="749" y="580" as="sourcePoint" />
            <mxPoint x="749" y="270" as="targetPoint" />
          </mxGeometry>
        </mxCell>
        <mxCell id="YxLPOCUfzqNuLfs7TiQS-106" value="" style="rounded=0;whiteSpace=wrap;html=1;" vertex="1" parent="1">
          <mxGeometry x="-544" y="490" width="40" height="50" as="geometry" />
        </mxCell>
        <mxCell id="YxLPOCUfzqNuLfs7TiQS-107" value="" style="endArrow=none;html=1;rounded=0;exitX=0.5;exitY=0;exitDx=0;exitDy=0;" edge="1" parent="1" source="YxLPOCUfzqNuLfs7TiQS-106">
          <mxGeometry width="50" height="50" relative="1" as="geometry">
            <mxPoint x="-574" y="520" as="sourcePoint" />
            <mxPoint x="-524" y="470" as="targetPoint" />
          </mxGeometry>
        </mxCell>
        <mxCell id="YxLPOCUfzqNuLfs7TiQS-108" value="" style="rounded=0;whiteSpace=wrap;html=1;" vertex="1" parent="1">
          <mxGeometry x="-471" y="490" width="40" height="50" as="geometry" />
        </mxCell>
        <mxCell id="YxLPOCUfzqNuLfs7TiQS-109" value="" style="endArrow=none;html=1;rounded=0;exitX=0.5;exitY=0;exitDx=0;exitDy=0;" edge="1" parent="1" source="YxLPOCUfzqNuLfs7TiQS-108">
          <mxGeometry width="50" height="50" relative="1" as="geometry">
            <mxPoint x="-501" y="520" as="sourcePoint" />
            <mxPoint x="-451" y="470" as="targetPoint" />
          </mxGeometry>
        </mxCell>
        <mxCell id="YxLPOCUfzqNuLfs7TiQS-110" value="" style="rounded=0;whiteSpace=wrap;html=1;" vertex="1" parent="1">
          <mxGeometry x="-398" y="490" width="40" height="50" as="geometry" />
        </mxCell>
        <mxCell id="YxLPOCUfzqNuLfs7TiQS-111" value="" style="endArrow=none;html=1;rounded=0;exitX=0.5;exitY=0;exitDx=0;exitDy=0;" edge="1" parent="1" source="YxLPOCUfzqNuLfs7TiQS-110">
          <mxGeometry width="50" height="50" relative="1" as="geometry">
            <mxPoint x="-428" y="520" as="sourcePoint" />
            <mxPoint x="-378" y="470" as="targetPoint" />
          </mxGeometry>
        </mxCell>
        <mxCell id="YxLPOCUfzqNuLfs7TiQS-112" value="" style="endArrow=none;html=1;rounded=0;exitX=1;exitY=0.5;exitDx=0;exitDy=0;entryX=0;entryY=0.5;entryDx=0;entryDy=0;" edge="1" parent="1" source="YxLPOCUfzqNuLfs7TiQS-11" target="YxLPOCUfzqNuLfs7TiQS-101">
          <mxGeometry width="50" height="50" relative="1" as="geometry">
            <mxPoint x="669" y="220" as="sourcePoint" />
            <mxPoint x="719" y="170" as="targetPoint" />
          </mxGeometry>
        </mxCell>
        <mxCell id="YxLPOCUfzqNuLfs7TiQS-113" value="Név" style="ellipse;whiteSpace=wrap;html=1;" vertex="1" parent="1">
          <mxGeometry x="1244" y="281" width="60" height="40" as="geometry" />
        </mxCell>
        <mxCell id="YxLPOCUfzqNuLfs7TiQS-114" value="" style="rounded=0;whiteSpace=wrap;html=1;" vertex="1" parent="1">
          <mxGeometry x="1254" y="341" width="40" height="50" as="geometry" />
        </mxCell>
        <mxCell id="YxLPOCUfzqNuLfs7TiQS-115" value="" style="endArrow=none;html=1;rounded=0;exitX=0.5;exitY=0;exitDx=0;exitDy=0;" edge="1" parent="1" source="YxLPOCUfzqNuLfs7TiQS-114">
          <mxGeometry width="50" height="50" relative="1" as="geometry">
            <mxPoint x="1224" y="371" as="sourcePoint" />
            <mxPoint x="1274" y="321" as="targetPoint" />
          </mxGeometry>
        </mxCell>
        <mxCell id="YxLPOCUfzqNuLfs7TiQS-116" value="Név" style="ellipse;whiteSpace=wrap;html=1;" vertex="1" parent="1">
          <mxGeometry x="1394" y="281" width="60" height="40" as="geometry" />
        </mxCell>
        <mxCell id="YxLPOCUfzqNuLfs7TiQS-117" value="" style="rounded=0;whiteSpace=wrap;html=1;" vertex="1" parent="1">
          <mxGeometry x="1404" y="341" width="40" height="50" as="geometry" />
        </mxCell>
        <mxCell id="YxLPOCUfzqNuLfs7TiQS-118" value="" style="endArrow=none;html=1;rounded=0;exitX=0.5;exitY=0;exitDx=0;exitDy=0;" edge="1" parent="1" source="YxLPOCUfzqNuLfs7TiQS-117">
          <mxGeometry width="50" height="50" relative="1" as="geometry">
            <mxPoint x="1374" y="371" as="sourcePoint" />
            <mxPoint x="1424" y="321" as="targetPoint" />
          </mxGeometry>
        </mxCell>
        <mxCell id="YxLPOCUfzqNuLfs7TiQS-119" value="" style="endArrow=none;html=1;rounded=0;exitX=0.5;exitY=0;exitDx=0;exitDy=0;entryX=0.5;entryY=1;entryDx=0;entryDy=0;" edge="1" parent="1" source="YxLPOCUfzqNuLfs7TiQS-113" target="YxLPOCUfzqNuLfs7TiQS-13">
          <mxGeometry width="50" height="50" relative="1" as="geometry">
            <mxPoint x="1309" y="290" as="sourcePoint" />
            <mxPoint x="1359" y="240" as="targetPoint" />
          </mxGeometry>
        </mxCell>
        <mxCell id="YxLPOCUfzqNuLfs7TiQS-120" value="" style="endArrow=none;html=1;rounded=0;exitX=0.5;exitY=0;exitDx=0;exitDy=0;entryX=0.5;entryY=1;entryDx=0;entryDy=0;" edge="1" parent="1" source="YxLPOCUfzqNuLfs7TiQS-116" target="YxLPOCUfzqNuLfs7TiQS-13">
          <mxGeometry width="50" height="50" relative="1" as="geometry">
            <mxPoint x="1319" y="285" as="sourcePoint" />
            <mxPoint x="1394" y="240" as="targetPoint" />
          </mxGeometry>
        </mxCell>
        <mxCell id="YxLPOCUfzqNuLfs7TiQS-121" value="Név" style="ellipse;whiteSpace=wrap;html=1;" vertex="1" parent="1">
          <mxGeometry x="872" y="285" width="60" height="40" as="geometry" />
        </mxCell>
        <mxCell id="YxLPOCUfzqNuLfs7TiQS-122" value="" style="rounded=0;whiteSpace=wrap;html=1;" vertex="1" parent="1">
          <mxGeometry x="882" y="345" width="40" height="50" as="geometry" />
        </mxCell>
        <mxCell id="YxLPOCUfzqNuLfs7TiQS-123" value="" style="endArrow=none;html=1;rounded=0;exitX=0.5;exitY=0;exitDx=0;exitDy=0;" edge="1" parent="1" source="YxLPOCUfzqNuLfs7TiQS-122">
          <mxGeometry width="50" height="50" relative="1" as="geometry">
            <mxPoint x="852" y="375" as="sourcePoint" />
            <mxPoint x="902" y="325" as="targetPoint" />
          </mxGeometry>
        </mxCell>
        <mxCell id="YxLPOCUfzqNuLfs7TiQS-124" value="Életkor" style="ellipse;whiteSpace=wrap;html=1;" vertex="1" parent="1">
          <mxGeometry x="959" y="285" width="60" height="40" as="geometry" />
        </mxCell>
        <mxCell id="YxLPOCUfzqNuLfs7TiQS-125" value="" style="rounded=0;whiteSpace=wrap;html=1;" vertex="1" parent="1">
          <mxGeometry x="969" y="345" width="40" height="50" as="geometry" />
        </mxCell>
        <mxCell id="YxLPOCUfzqNuLfs7TiQS-126" value="" style="endArrow=none;html=1;rounded=0;exitX=0.5;exitY=0;exitDx=0;exitDy=0;" edge="1" parent="1" source="YxLPOCUfzqNuLfs7TiQS-125">
          <mxGeometry width="50" height="50" relative="1" as="geometry">
            <mxPoint x="939" y="375" as="sourcePoint" />
            <mxPoint x="989" y="325" as="targetPoint" />
          </mxGeometry>
        </mxCell>
        <mxCell id="YxLPOCUfzqNuLfs7TiQS-127" value="Cím" style="ellipse;whiteSpace=wrap;html=1;" vertex="1" parent="1">
          <mxGeometry x="1052" y="285" width="60" height="40" as="geometry" />
        </mxCell>
        <mxCell id="YxLPOCUfzqNuLfs7TiQS-128" value="Város" style="ellipse;whiteSpace=wrap;html=1;" vertex="1" parent="1">
          <mxGeometry x="982" y="431" width="60" height="40" as="geometry" />
        </mxCell>
        <mxCell id="YxLPOCUfzqNuLfs7TiQS-129" value="Utca" style="ellipse;whiteSpace=wrap;html=1;" vertex="1" parent="1">
          <mxGeometry x="1052" y="431" width="60" height="40" as="geometry" />
        </mxCell>
        <mxCell id="YxLPOCUfzqNuLfs7TiQS-130" value="Házszám" style="ellipse;whiteSpace=wrap;html=1;" vertex="1" parent="1">
          <mxGeometry x="1122" y="431" width="60" height="40" as="geometry" />
        </mxCell>
        <mxCell id="YxLPOCUfzqNuLfs7TiQS-131" value="" style="endArrow=none;html=1;rounded=0;entryX=0.5;entryY=1;entryDx=0;entryDy=0;exitX=0.5;exitY=0;exitDx=0;exitDy=0;" edge="1" parent="1" source="YxLPOCUfzqNuLfs7TiQS-129" target="YxLPOCUfzqNuLfs7TiQS-127">
          <mxGeometry width="50" height="50" relative="1" as="geometry">
            <mxPoint x="1002" y="420" as="sourcePoint" />
            <mxPoint x="1052" y="370" as="targetPoint" />
          </mxGeometry>
        </mxCell>
        <mxCell id="YxLPOCUfzqNuLfs7TiQS-132" value="" style="endArrow=none;html=1;rounded=0;entryX=0.5;entryY=1;entryDx=0;entryDy=0;exitX=0.5;exitY=0;exitDx=0;exitDy=0;" edge="1" parent="1" source="YxLPOCUfzqNuLfs7TiQS-128" target="YxLPOCUfzqNuLfs7TiQS-127">
          <mxGeometry width="50" height="50" relative="1" as="geometry">
            <mxPoint x="1012" y="410" as="sourcePoint" />
            <mxPoint x="1062" y="360" as="targetPoint" />
          </mxGeometry>
        </mxCell>
        <mxCell id="YxLPOCUfzqNuLfs7TiQS-133" value="" style="endArrow=none;html=1;rounded=0;entryX=0.5;entryY=1;entryDx=0;entryDy=0;exitX=0.5;exitY=0;exitDx=0;exitDy=0;" edge="1" parent="1" source="YxLPOCUfzqNuLfs7TiQS-130" target="YxLPOCUfzqNuLfs7TiQS-127">
          <mxGeometry width="50" height="50" relative="1" as="geometry">
            <mxPoint x="1102" y="390" as="sourcePoint" />
            <mxPoint x="1152" y="340" as="targetPoint" />
          </mxGeometry>
        </mxCell>
        <mxCell id="YxLPOCUfzqNuLfs7TiQS-134" value="" style="rounded=0;whiteSpace=wrap;html=1;" vertex="1" parent="1">
          <mxGeometry x="992" y="491" width="40" height="50" as="geometry" />
        </mxCell>
        <mxCell id="YxLPOCUfzqNuLfs7TiQS-135" value="" style="endArrow=none;html=1;rounded=0;exitX=0.5;exitY=0;exitDx=0;exitDy=0;" edge="1" parent="1" source="YxLPOCUfzqNuLfs7TiQS-134">
          <mxGeometry width="50" height="50" relative="1" as="geometry">
            <mxPoint x="962" y="521" as="sourcePoint" />
            <mxPoint x="1012" y="471" as="targetPoint" />
          </mxGeometry>
        </mxCell>
        <mxCell id="YxLPOCUfzqNuLfs7TiQS-136" value="" style="rounded=0;whiteSpace=wrap;html=1;" vertex="1" parent="1">
          <mxGeometry x="1062" y="491" width="40" height="50" as="geometry" />
        </mxCell>
        <mxCell id="YxLPOCUfzqNuLfs7TiQS-137" value="" style="endArrow=none;html=1;rounded=0;exitX=0.5;exitY=0;exitDx=0;exitDy=0;" edge="1" parent="1" source="YxLPOCUfzqNuLfs7TiQS-136">
          <mxGeometry width="50" height="50" relative="1" as="geometry">
            <mxPoint x="1032" y="521" as="sourcePoint" />
            <mxPoint x="1082" y="471" as="targetPoint" />
          </mxGeometry>
        </mxCell>
        <mxCell id="YxLPOCUfzqNuLfs7TiQS-138" value="" style="rounded=0;whiteSpace=wrap;html=1;" vertex="1" parent="1">
          <mxGeometry x="1132" y="491" width="40" height="50" as="geometry" />
        </mxCell>
        <mxCell id="YxLPOCUfzqNuLfs7TiQS-139" value="" style="endArrow=none;html=1;rounded=0;exitX=0.5;exitY=0;exitDx=0;exitDy=0;" edge="1" parent="1" source="YxLPOCUfzqNuLfs7TiQS-138">
          <mxGeometry width="50" height="50" relative="1" as="geometry">
            <mxPoint x="1102" y="521" as="sourcePoint" />
            <mxPoint x="1152" y="471" as="targetPoint" />
          </mxGeometry>
        </mxCell>
        <mxCell id="YxLPOCUfzqNuLfs7TiQS-140" value="" style="endArrow=none;html=1;rounded=0;exitX=0.5;exitY=0;exitDx=0;exitDy=0;entryX=0.5;entryY=1;entryDx=0;entryDy=0;" edge="1" parent="1" source="YxLPOCUfzqNuLfs7TiQS-121" target="YxLPOCUfzqNuLfs7TiQS-12">
          <mxGeometry width="50" height="50" relative="1" as="geometry">
            <mxPoint x="939" y="280" as="sourcePoint" />
            <mxPoint x="989" y="230" as="targetPoint" />
          </mxGeometry>
        </mxCell>
        <mxCell id="YxLPOCUfzqNuLfs7TiQS-141" value="" style="endArrow=none;html=1;rounded=0;entryX=0.5;entryY=1;entryDx=0;entryDy=0;exitX=0.5;exitY=0;exitDx=0;exitDy=0;" edge="1" parent="1" source="YxLPOCUfzqNuLfs7TiQS-124" target="YxLPOCUfzqNuLfs7TiQS-12">
          <mxGeometry width="50" height="50" relative="1" as="geometry">
            <mxPoint x="939" y="290" as="sourcePoint" />
            <mxPoint x="989" y="230" as="targetPoint" />
          </mxGeometry>
        </mxCell>
        <mxCell id="YxLPOCUfzqNuLfs7TiQS-142" value="" style="endArrow=none;html=1;rounded=0;entryX=0.5;entryY=1;entryDx=0;entryDy=0;exitX=0.5;exitY=0;exitDx=0;exitDy=0;" edge="1" parent="1" source="YxLPOCUfzqNuLfs7TiQS-127" target="YxLPOCUfzqNuLfs7TiQS-12">
          <mxGeometry width="50" height="50" relative="1" as="geometry">
            <mxPoint x="999" y="290" as="sourcePoint" />
            <mxPoint x="1049" y="240" as="targetPoint" />
          </mxGeometry>
        </mxCell>
        <mxCell id="YxLPOCUfzqNuLfs7TiQS-143" value="&lt;u&gt;Vkod&lt;/u&gt;" style="rhombus;whiteSpace=wrap;html=1;" vertex="1" parent="1">
          <mxGeometry x="812" y="210" width="60" height="60" as="geometry" />
        </mxCell>
        <mxCell id="YxLPOCUfzqNuLfs7TiQS-144" value="" style="endArrow=none;html=1;rounded=0;entryX=0;entryY=0.5;entryDx=0;entryDy=0;exitX=1;exitY=0.5;exitDx=0;exitDy=0;" edge="1" parent="1" source="YxLPOCUfzqNuLfs7TiQS-143" target="YxLPOCUfzqNuLfs7TiQS-12">
          <mxGeometry width="50" height="50" relative="1" as="geometry">
            <mxPoint x="879" y="270" as="sourcePoint" />
            <mxPoint x="929" y="220" as="targetPoint" />
          </mxGeometry>
        </mxCell>
        <mxCell id="YxLPOCUfzqNuLfs7TiQS-147" value="&lt;u&gt;E_V_E&lt;/u&gt;" style="rhombus;whiteSpace=wrap;html=1;" vertex="1" parent="1">
          <mxGeometry x="1173" y="210" width="60" height="60" as="geometry" />
        </mxCell>
        <mxCell id="YxLPOCUfzqNuLfs7TiQS-148" value="" style="endArrow=none;dashed=1;html=1;rounded=0;" edge="1" parent="1">
          <mxGeometry width="50" height="50" relative="1" as="geometry">
            <mxPoint x="841.5" y="580" as="sourcePoint" />
            <mxPoint x="841.5" y="270" as="targetPoint" />
          </mxGeometry>
        </mxCell>
        <mxCell id="YxLPOCUfzqNuLfs7TiQS-149" value="" style="endArrow=none;dashed=1;html=1;rounded=0;" edge="1" parent="1">
          <mxGeometry width="50" height="50" relative="1" as="geometry">
            <mxPoint x="1202.5" y="580" as="sourcePoint" />
            <mxPoint x="1202.5" y="270" as="targetPoint" />
          </mxGeometry>
        </mxCell>
        <mxCell id="YxLPOCUfzqNuLfs7TiQS-150" value="" style="endArrow=none;dashed=1;html=1;rounded=0;" edge="1" parent="1">
          <mxGeometry width="50" height="50" relative="1" as="geometry">
            <mxPoint x="841" y="584" as="sourcePoint" />
            <mxPoint x="1203.5" y="584" as="targetPoint" />
          </mxGeometry>
        </mxCell>
        <mxCell id="YxLPOCUfzqNuLfs7TiQS-151" value="" style="triangle;whiteSpace=wrap;html=1;rotation=-90;" vertex="1" parent="1">
          <mxGeometry x="837" y="271" width="10" height="10" as="geometry" />
        </mxCell>
        <mxCell id="YxLPOCUfzqNuLfs7TiQS-154" value="" style="triangle;whiteSpace=wrap;html=1;rotation=-90;" vertex="1" parent="1">
          <mxGeometry x="-626" y="270" width="10" height="10" as="geometry" />
        </mxCell>
        <mxCell id="YxLPOCUfzqNuLfs7TiQS-155" value="" style="triangle;whiteSpace=wrap;html=1;rotation=-90;" vertex="1" parent="1">
          <mxGeometry x="-640" y="257" width="10" height="10" as="geometry" />
        </mxCell>
        <mxCell id="YxLPOCUfzqNuLfs7TiQS-156" value="" style="triangle;whiteSpace=wrap;html=1;rotation=-90;" vertex="1" parent="1">
          <mxGeometry x="-633" y="264" width="10" height="10" as="geometry" />
        </mxCell>
        <mxCell id="YxLPOCUfzqNuLfs7TiQS-157" value="" style="endArrow=none;html=1;rounded=0;exitX=1;exitY=0.5;exitDx=0;exitDy=0;entryX=0;entryY=0.5;entryDx=0;entryDy=0;" edge="1" parent="1" source="YxLPOCUfzqNuLfs7TiQS-147" target="YxLPOCUfzqNuLfs7TiQS-13">
          <mxGeometry width="50" height="50" relative="1" as="geometry">
            <mxPoint x="1250" y="240" as="sourcePoint" />
            <mxPoint x="1300" y="190" as="targetPoint" />
          </mxGeometry>
        </mxCell>
        <mxCell id="YxLPOCUfzqNuLfs7TiQS-158" value="E_V_E" style="rhombus;whiteSpace=wrap;html=1;" vertex="1" parent="1">
          <mxGeometry x="1480" y="213" width="60" height="60" as="geometry" />
        </mxCell>
        <mxCell id="YxLPOCUfzqNuLfs7TiQS-159" value="" style="endArrow=none;dashed=1;html=1;rounded=0;" edge="1" parent="1">
          <mxGeometry width="50" height="50" relative="1" as="geometry">
            <mxPoint x="1497" y="252" as="sourcePoint" />
            <mxPoint x="1527" y="252.23000000000002" as="targetPoint" />
          </mxGeometry>
        </mxCell>
        <mxCell id="YxLPOCUfzqNuLfs7TiQS-160" value="" style="endArrow=none;dashed=1;html=1;rounded=0;" edge="1" parent="1">
          <mxGeometry width="50" height="50" relative="1" as="geometry">
            <mxPoint x="1510" y="600" as="sourcePoint" />
            <mxPoint x="1509.66" y="271" as="targetPoint" />
          </mxGeometry>
        </mxCell>
        <mxCell id="YxLPOCUfzqNuLfs7TiQS-161" value="" style="endArrow=none;dashed=1;html=1;rounded=0;" edge="1" parent="1">
          <mxGeometry width="50" height="50" relative="1" as="geometry">
            <mxPoint x="-648" y="600" as="sourcePoint" />
            <mxPoint x="1512" y="600" as="targetPoint" />
          </mxGeometry>
        </mxCell>
        <mxCell id="YxLPOCUfzqNuLfs7TiQS-162" value="" style="endArrow=none;dashed=1;html=1;rounded=0;entryX=0.39;entryY=0.924;entryDx=0;entryDy=0;entryPerimeter=0;" edge="1" parent="1">
          <mxGeometry width="50" height="50" relative="1" as="geometry">
            <mxPoint x="-646" y="600" as="sourcePoint" />
            <mxPoint x="-646" y="251" as="targetPoint" />
          </mxGeometry>
        </mxCell>
        <mxCell id="YxLPOCUfzqNuLfs7TiQS-163" value="" style="triangle;whiteSpace=wrap;html=1;rotation=-90;" vertex="1" parent="1">
          <mxGeometry x="-651" y="246" width="10" height="10" as="geometry" />
        </mxCell>
        <mxCell id="YxLPOCUfzqNuLfs7TiQS-164" value="" style="endArrow=none;html=1;rounded=0;exitX=1;exitY=0.5;exitDx=0;exitDy=0;entryX=0;entryY=0.5;entryDx=0;entryDy=0;" edge="1" parent="1" source="YxLPOCUfzqNuLfs7TiQS-13" target="YxLPOCUfzqNuLfs7TiQS-158">
          <mxGeometry width="50" height="50" relative="1" as="geometry">
            <mxPoint x="1440" y="200" as="sourcePoint" />
            <mxPoint x="1490" y="150" as="targetPoint" />
          </mxGeometry>
        </mxCell>
      </root>
    </mxGraphModel>
  </diagram>
</mxfile>
